General


Format                           : MPEG-4
Format profile                   : Base Media
Codec ID                         : isom
File size                        : 111 MiB
Duration                         : 3mn 40s
Overall bit rate                 : 4 215 Kbps
Encoded date                     : UTC 2012-03-03 16:19:38
Tagged date                      : UTC 2012-03-03 16:19:38

Video
ID                               : 1
Format                           : AVC
Format/Info                      : Advanced Video Codec
Format profile                   : High@L3.0
Format settings, CABAC           : Yes
Format settings, ReFrames        : 2 frames
Codec ID                         : avc1
Codec ID/Info                    : Advanced Video Coding
Duration                         : 3mn 39s
Bit rate mode                    : Variable
Bit rate                         : 4 180 Kbps
Maximum bit rate                 : 6 113 Kbps
Width                            : 720 pixels
Height                           : 576 pixels
Display aspect ratio             : 4:3
Original display aspect ratio    : 4:3
Frame rate mode                  : Constant
Frame rate                       : 25.000 fps
Standard                         : PAL
Color space                      : YUV
Chroma subsampling               : 4:2:0
Bit depth                        : 8 bits
Scan type                        : Progressive
Bits/(Pixel*Frame)               : 0.403
Stream size                      : 109 MiB (99%)


Audio
ID                               : 2
Format                           : AAC
Format/Info                      : Advanced Audio Codec
Format profile                   : LC
Codec ID                         : 40
Duration                         : 3mn 40s
Bit rate mode                    : Variable
Bit rate                         : 43.1 Kbps
Maximum bit rate                 : 48.7 Kbps
Channel(s)                       : 2 channels
Channel positions                : Front: L R
Sampling rate                    : 48.0 KHz
Compression mode                 : Lossy
Stream size                      : 1.13 MiB (1%)


